<svg width="32" height="32" viewBox="0 0 32 32" fill="none" xmlns="http://www.w3.org/2000/svg">
<g id="Icon">
<path id="Vector" d="M29.33 22.56V26.56C29.3315 26.9314 29.2554 27.2989 29.1067 27.6392C28.9579 27.9794 28.7397 28.2848 28.4661 28.5358C28.1925 28.7869 27.8694 28.978 27.5177 29.097C27.1659 29.2159 26.7932 29.2601 26.4233 29.2267C22.3204 28.7809 18.3793 27.3789 14.9167 25.1334C11.6951 23.0862 8.96377 20.3549 6.91666 17.1334C4.66329 13.655 3.26098 9.69469 2.82332 5.57336C2.79 5.20465 2.83382 4.83304 2.95199 4.48219C3.07016 4.13135 3.26008 3.80895 3.50968 3.53552C3.75927 3.2621 4.06306 3.04364 4.40171 2.89406C4.74036 2.74447 5.10644 2.66704 5.47666 2.66669H9.47666C10.1237 2.66033 10.751 2.88947 11.2417 3.3114C11.7323 3.73334 12.0528 4.31929 12.1433 4.96003C12.3122 6.24012 12.6253 7.497 13.0767 8.70669C13.256 9.18393 13.2949 9.70258 13.1885 10.2012C13.0822 10.6998 12.8351 11.1575 12.4767 11.52L10.7833 13.2134C12.6814 16.5514 15.4453 19.3153 18.7833 21.2134L20.4767 19.52C20.8392 19.1615 21.2969 18.9145 21.7955 18.8082C22.2941 18.7018 22.8128 18.7406 23.29 18.92C24.4997 19.3714 25.7566 19.6845 27.0367 19.8534C27.6843 19.9447 28.2759 20.271 28.6987 20.77C29.1215 21.2691 29.3462 21.9061 29.33 22.56Z" stroke="#D1D5DB" stroke-width="2" stroke-linecap="round" stroke-linejoin="round"/>
</g>
</svg>
