<svg width="17" height="16" viewBox="0 0 17 16" fill="none" xmlns="http://www.w3.org/2000/svg">
<g id="Icon" clip-path="url(#clip0_921_1803)">
<path id="Vector" d="M8.5026 14.6666C12.1845 14.6666 15.1693 11.6819 15.1693 7.99998C15.1693 4.31808 12.1845 1.33331 8.5026 1.33331C4.82071 1.33331 1.83594 4.31808 1.83594 7.99998C1.83594 11.6819 4.82071 14.6666 8.5026 14.6666Z" stroke="#D1D5DB" stroke-width="2" stroke-linecap="round" stroke-linejoin="round"/>
<path id="Vector_2" d="M10.5025 6.23598C10.1442 5.82978 9.67067 5.54232 9.14498 5.41184C8.6193 5.28137 8.06634 5.31406 7.55969 5.50558C7.05304 5.6971 6.61673 6.03836 6.3088 6.48395C6.00087 6.92955 5.83594 7.45834 5.83594 7.99998C5.83594 8.54162 6.00087 9.07041 6.3088 9.51601C6.61673 9.9616 7.05304 10.3029 7.55969 10.4944C8.06634 10.6859 8.6193 10.7186 9.14498 10.5881C9.67067 10.4576 10.1442 10.1702 10.5025 9.76398" stroke="#D1D5DB" stroke-width="2" stroke-linecap="round" stroke-linejoin="round"/>
</g>
<defs>
<clipPath id="clip0_921_1803">
<rect width="16" height="16" fill="white" transform="translate(0.5)"/>
</clipPath>
</defs>
</svg>
