<svg width="65" height="64" viewBox="0 0 65 64" fill="none" xmlns="http://www.w3.org/2000/svg">
<g id="icon-cypress" clip-path="url(#clip0_921_1591)">
<path id="Vector" d="M1.49026 40.4783C0.735717 37.7304 0.351562 34.8763 0.351562 32.0016C0.351562 18.8788 8.59324 6.87991 20.8614 2.14819L22.47 6.31115C11.9098 10.385 4.8171 20.7084 4.8171 32.0016C4.8171 34.4788 5.14634 36.932 5.79456 39.2962L1.49026 40.4783Z" fill="#58D09E"/>
<path id="Vector_2" d="M20.6473 2.25038C23.3013 1.21274 26.0996 0.532349 28.9585 0.231864C42.0094 -1.13984 54.8041 5.80246 60.7923 17.5088L56.8203 19.5437C51.6649 9.46722 40.6566 3.49247 29.4253 4.67293C26.9617 4.93187 24.5563 5.51574 22.2729 6.40753L20.6473 2.25038Z" fill="#58D09E"/>
<path id="Vector_3" d="M46.9968 55.2684C55.7112 49.7136 60.5651 39.8556 59.6632 29.5473C59.3437 25.8949 58.3299 22.4065 56.6552 19.1859L60.6122 17.1217C62.5598 20.8659 63.7394 24.9147 64.1107 29.1582C65.1584 41.1338 59.522 52.582 49.3969 59.035L46.9968 55.2684Z" fill="#F9FAFB"/>
<path id="Vector_4" d="M22.8554 25.3991C25.4447 25.3991 27.554 26.7799 28.6379 29.1886L28.7236 29.3771L33.0724 27.9003L32.9799 27.6776C31.2959 23.5763 27.4168 21.0271 22.8554 21.0271C19.6484 21.0271 17.0419 22.0551 14.888 24.1656C12.7478 26.2626 11.6641 28.9008 11.6641 32.0084C11.6641 35.0887 12.7478 37.7132 14.888 39.8102C17.0419 41.9208 19.6484 42.9487 22.8554 42.9487C27.4168 42.9487 31.2959 40.3995 32.9799 36.3016L33.0724 36.079L28.7167 34.5987L28.6344 34.794C27.6638 37.1616 25.5031 38.5767 22.8554 38.5767C21.0512 38.5767 19.5284 37.9463 18.3211 36.7059C17.1002 35.4484 16.4828 33.869 16.4828 32.0119C16.4828 30.1411 17.0864 28.5924 18.3211 27.2767C19.525 26.0296 21.0512 25.3991 22.8554 25.3991Z" fill="#F9FAFB"/>
<path id="Vector_5" d="M50.0943 21.4316L43.8968 37.1138L37.6582 21.4316H32.5547L41.3039 42.8358L35.079 57.932L39.5411 58.8195L54.9166 21.4316H50.0943Z" fill="#F9FAFB"/>
<path id="Vector_6" d="M35.8761 55.9859L34.7889 58.6174C34.5728 59.1382 34.0789 59.491 33.5233 59.515C33.1564 59.5287 32.786 59.539 32.4121 59.539C19.6157 59.5322 8.29414 50.5107 5.4886 38.0801L1.13281 39.0634C2.70707 46.0359 6.65815 52.3643 12.2589 56.8871C17.9249 61.4611 25.0621 63.9863 32.3641 64.0001C32.3744 64.0001 32.4292 64.0001 32.4292 64.0001C32.858 64.0001 33.2832 63.9898 33.7085 63.9727C35.9996 63.8767 38.0472 62.4411 38.9217 60.3134L40.3416 56.8734L35.8761 55.9859Z" fill="#F9FAFB"/>
</g>
<defs>
<clipPath id="clip0_921_1591">
<rect width="64" height="64" fill="white" transform="translate(0.351562)"/>
</clipPath>
</defs>
</svg>
