<svg width="44" height="64" viewBox="0 0 44 64" fill="none" xmlns="http://www.w3.org/2000/svg">
<g id="icon-figma" clip-path="url(#clip0_921_1583)">
<path id="Vector" d="M22.0234 31.9999C22.0234 29.1709 23.1472 26.4578 25.1476 24.4574C27.148 22.4571 29.8611 21.3333 32.6901 21.3333C35.5191 21.3333 38.2322 22.4571 40.2326 24.4574C42.233 26.4578 43.3568 29.1709 43.3568 31.9999C43.3568 34.8289 42.233 37.542 40.2326 39.5424C38.2322 41.5428 35.5191 42.6666 32.6901 42.6666C29.8611 42.6666 27.148 41.5428 25.1476 39.5424C23.1472 37.542 22.0234 34.8289 22.0234 31.9999Z" fill="#1ABCFE"/>
<path id="Vector_2" d="M0.6875 53.3334C0.6875 50.5044 1.81131 47.7913 3.81169 45.7909C5.81208 43.7906 8.52519 42.6667 11.3542 42.6667H22.0208V53.3334C22.0208 56.1624 20.897 58.8755 18.8966 60.8759C16.8962 62.8763 14.1831 64.0001 11.3542 64.0001C8.52519 64.0001 5.81208 62.8763 3.81169 60.8759C1.81131 58.8755 0.6875 56.1624 0.6875 53.3334Z" fill="#0ACF83"/>
<path id="Vector_3" d="M22.0234 0V21.3333H32.6901C35.5191 21.3333 38.2322 20.2095 40.2326 18.2091C42.233 16.2087 43.3568 13.4956 43.3568 10.6667C43.3568 7.83769 42.233 5.12458 40.2326 3.12419C38.2322 1.12381 35.5191 0 32.6901 0L22.0234 0Z" fill="#FF7262"/>
<path id="Vector_4" d="M0.6875 10.6667C0.6875 13.4956 1.81131 16.2087 3.81169 18.2091C5.81208 20.2095 8.52519 21.3333 11.3542 21.3333H22.0208V0H11.3542C8.52519 0 5.81208 1.12381 3.81169 3.12419C1.81131 5.12458 0.6875 7.83769 0.6875 10.6667Z" fill="#F24E1E"/>
<path id="Vector_5" d="M0.6875 31.9999C0.6875 34.8289 1.81131 37.542 3.81169 39.5424C5.81208 41.5428 8.52519 42.6666 11.3542 42.6666H22.0208V21.3333H11.3542C8.52519 21.3333 5.81208 22.4571 3.81169 24.4574C1.81131 26.4578 0.6875 29.1709 0.6875 31.9999Z" fill="#A259FF"/>
</g>
<defs>
<clipPath id="clip0_921_1583">
<rect width="42.6667" height="64" fill="white" transform="translate(0.6875)"/>
</clipPath>
</defs>
</svg>
