<svg width="24" height="24" viewBox="0 0 24 24" fill="none" xmlns="http://www.w3.org/2000/svg">
<g id="Icon">
<path id="Vector" d="M15.0037 22V18C15.1428 16.7473 14.7836 15.4901 14.0037 14.5C17.0037 14.5 20.0037 12.5 20.0037 9C20.0837 7.75 19.7337 6.52 19.0037 5.5C19.2837 4.35 19.2837 3.15 19.0037 2C19.0037 2 18.0037 2 16.0037 3.5C13.3637 3 10.6437 3 8.0037 3.5C6.0037 2 5.0037 2 5.0037 2C4.7037 3.15 4.7037 4.35 5.0037 5.5C4.27557 6.51588 3.92217 7.75279 4.0037 9C4.0037 12.5 7.0037 14.5 10.0037 14.5C9.6137 14.99 9.3237 15.55 9.1537 16.15C8.9837 16.75 8.9337 17.38 9.0037 18V22" stroke="#D1D5DB" stroke-width="2" stroke-linecap="round" stroke-linejoin="round"/>
<path id="Vector_2" d="M9 18C4.49 20 4 16 2 16" stroke="#D1D5DB" stroke-width="2" stroke-linecap="round" stroke-linejoin="round"/>
</g>
</svg>
