<svg width="64" height="64" viewBox="0 0 64 64" fill="none" xmlns="http://www.w3.org/2000/svg">
<g id="icon-git">
<path id="Vector" d="M56.2641 29.4667L34.5307 7.73342C33.8641 7.06675 32.9307 6.66675 31.9974 6.66675C31.0641 6.66675 30.1307 7.06675 29.4641 7.73342L24.7974 12.4001L30.2641 17.8667C30.7974 17.6001 31.3307 17.4667 31.9974 17.4667C34.2641 17.4667 35.9974 19.2001 35.9974 21.4667C35.9974 22.1334 35.8641 22.6667 35.5974 23.2001L40.9307 28.5334C41.4641 28.2667 41.9974 28.1334 42.6641 28.1334C44.9307 28.1334 46.6641 29.8667 46.6641 32.1334C46.6641 34.4001 44.9307 36.1334 42.6641 36.1334C40.3974 36.1334 38.6641 34.4001 38.6641 32.1334C38.6641 31.4667 38.7974 30.9334 39.0641 30.4001L33.7307 25.0667C33.5974 25.0667 33.4641 25.2001 33.3307 25.2001V39.0667C34.9307 39.6001 35.9974 41.0667 35.9974 42.8001C35.9974 45.0667 34.2641 46.8001 31.9974 46.8001C29.7307 46.8001 27.9974 45.0667 27.9974 42.8001C27.9974 41.0667 29.0641 39.6001 30.6641 39.0667V25.0667C29.0641 24.5334 27.9974 23.0667 27.9974 21.3334C27.9974 20.6667 28.1307 20.1334 28.3974 19.6001L22.9307 14.1334L7.73073 29.4667C7.06406 30.1334 6.66406 31.0667 6.66406 32.0001C6.66406 32.9334 7.06406 33.8667 7.73073 34.5334L29.4641 56.2668C30.1307 56.9334 31.0641 57.3334 31.9974 57.3334C32.9307 57.3334 33.8641 56.9334 34.5307 56.2668L56.2641 34.5334C56.9307 33.8667 57.3307 32.9334 57.3307 32.0001C57.3307 31.0667 56.9307 30.1334 56.2641 29.4667Z" fill="#F4511E"/>
</g>
</svg>
