<svg width="31" height="64" viewBox="0 0 31 64" fill="none" xmlns="http://www.w3.org/2000/svg">
<g id="icon-mongodb" clip-path="url(#clip0_921_1567)">
<path id="Vector" d="M21.0367 7.13325C18.3387 3.94632 16.0155 0.709589 15.5409 0.0373468C15.4909 -0.0124489 15.4159 -0.0124489 15.366 0.0373468C14.8913 0.709589 12.5681 3.94632 9.87013 7.13325C-13.2872 36.5376 13.5174 56.3813 13.5174 56.3813L13.7422 56.5306C13.942 59.5932 14.4417 64 14.4417 64H15.4409H16.4402C16.4402 64 16.9398 59.618 17.1396 56.5306L17.3644 56.3565C17.3894 56.3565 44.194 36.5376 21.0367 7.13325ZM15.4409 55.933C15.4409 55.933 14.2418 54.9123 13.9171 54.3893V54.3397L15.366 22.3209C15.366 22.2213 15.5159 22.2213 15.5159 22.3209L16.9648 54.3397V54.3893C16.64 54.9123 15.4409 55.933 15.4409 55.933Z" fill="#00684A"/>
</g>
<defs>
<clipPath id="clip0_921_1567">
<rect width="29.7674" height="64" fill="white" transform="translate(0.445312)"/>
</clipPath>
</defs>
</svg>
