<svg width="67" height="64" viewBox="0 0 67 64" fill="none" xmlns="http://www.w3.org/2000/svg">
<g id="icon-nest">
<path id="Vector" fill-rule="evenodd" clip-rule="evenodd" d="M38.3503 1.06177C37.8985 1.06177 37.479 1.15886 37.0917 1.2883C37.9146 1.83845 38.3664 2.5666 38.5923 3.39183C38.6085 3.50509 38.6407 3.586 38.6568 3.69926C38.673 3.79635 38.6891 3.89344 38.6891 3.99053C38.7537 5.41445 38.318 5.59244 38.0114 6.43385C37.5435 7.51798 37.6726 8.68301 38.2373 9.6215C38.2857 9.73477 38.3503 9.86421 38.4309 9.97748C37.8178 5.8837 41.2223 5.26882 41.8516 3.99053C41.9 2.87404 40.9803 2.12971 40.2542 1.61192C39.5604 1.19122 38.9311 1.06177 38.3503 1.06177ZM43.4812 1.98408C43.4166 2.35624 43.465 2.25916 43.449 2.45333C43.4328 2.58278 43.4328 2.74459 43.4167 2.87404C43.3845 3.00348 43.3521 3.13293 43.3038 3.26238C43.2715 3.39183 43.2231 3.52128 43.1747 3.65072C43.1101 3.78018 43.0617 3.89344 42.9972 4.02288C42.9488 4.08764 42.9165 4.15233 42.8681 4.21706C42.8359 4.2656 42.8035 4.31414 42.7713 4.36269C42.6906 4.47596 42.61 4.58922 42.5293 4.6863C42.4325 4.78339 42.3518 4.89666 42.2388 4.97757V4.99377C42.142 5.07467 42.0452 5.17176 41.9323 5.25266C41.5934 5.51155 41.2062 5.70573 40.8512 5.94844C40.7383 6.02935 40.6253 6.09407 40.5285 6.19116C40.4156 6.27206 40.3188 6.35296 40.222 6.45005C40.109 6.54714 40.0283 6.64423 39.9315 6.75749C39.8509 6.85458 39.7541 6.96784 39.6895 7.08111C39.6088 7.19438 39.5282 7.30765 39.4636 7.42091C39.3991 7.55035 39.3507 7.66363 39.2861 7.79307C39.2377 7.92252 39.1893 8.03579 39.1571 8.16523C39.1086 8.31086 39.0764 8.44031 39.0441 8.56976C39.028 8.63451 39.028 8.71539 39.0119 8.78011C38.9957 8.84486 38.9957 8.90956 38.9796 8.97429C38.9796 9.10373 38.9635 9.24936 38.9635 9.37881C38.9635 9.47589 38.9635 9.57298 38.9796 9.67007C38.9796 9.79951 38.9958 9.92896 39.028 10.0746C39.0442 10.204 39.0764 10.3335 39.1087 10.4629C39.1571 10.5924 39.1894 10.7218 39.2378 10.8513C39.27 10.9322 39.3185 11.0131 39.3507 11.0778L35.6397 9.6377C35.0104 9.45971 34.3973 9.29791 33.768 9.15228C33.4292 9.07137 33.0903 8.99046 32.7515 8.90956C31.7834 8.71539 30.7992 8.56976 29.8149 8.47268C29.7827 8.47268 29.7665 8.45647 29.7343 8.45647C28.7661 8.35939 27.8142 8.31085 26.8461 8.31085C26.1361 8.31085 25.4262 8.34318 24.7324 8.39175C23.7481 8.4565 22.7639 8.58592 21.7797 8.74773C21.5376 8.78007 21.2956 8.82864 21.0536 8.87718C20.5534 8.97426 20.0694 9.08753 19.6014 9.2008C19.3594 9.26555 19.1174 9.33025 18.8754 9.39497C18.6333 9.49205 18.4075 9.60532 18.1816 9.70241C18.0041 9.78331 17.8266 9.86422 17.6491 9.94513C17.6169 9.96133 17.5845 9.96133 17.5684 9.97746C17.4071 10.0584 17.2619 10.1231 17.1167 10.204C17.0682 10.2202 17.036 10.2363 17.0037 10.2525C16.8262 10.3334 16.6487 10.4305 16.5035 10.5114C16.3906 10.56 16.2776 10.6247 16.1808 10.6732C16.1324 10.7056 16.0679 10.738 16.0356 10.7541C15.8904 10.8351 15.7452 10.916 15.6161 10.9969C15.4709 11.0778 15.3418 11.1587 15.2288 11.2396C15.1159 11.3205 15.003 11.3852 14.9061 11.4661C14.89 11.4823 14.8739 11.4823 14.8577 11.4984C14.7609 11.5632 14.648 11.6441 14.5512 11.725C14.5512 11.725 14.535 11.7412 14.5189 11.7573C14.4383 11.8221 14.3576 11.8868 14.2769 11.9515C14.2447 11.9677 14.2123 12 14.1801 12.0162C14.0994 12.081 14.0187 12.1619 13.9381 12.2266C13.9219 12.2589 13.8897 12.2751 13.8735 12.2913C13.7767 12.3884 13.6799 12.4693 13.5831 12.5664C13.5669 12.5664 13.5669 12.5826 13.5508 12.5988C13.454 12.6797 13.3572 12.7767 13.2604 12.8738C13.2442 12.89 13.2442 12.9062 13.2282 12.9062C13.1475 12.9871 13.0668 13.068 12.9861 13.1651C12.9539 13.1974 12.9055 13.2298 12.8732 13.2621C12.7925 13.3592 12.6957 13.4563 12.5989 13.5534C12.5827 13.5857 12.5505 13.6019 12.5343 13.6343C12.4052 13.7638 12.2923 13.8932 12.1632 14.0227C12.1471 14.0389 12.131 14.055 12.1148 14.0712C11.8566 14.3463 11.5824 14.6213 11.2919 14.8641C11.0015 15.123 10.6949 15.3657 10.3884 15.576C10.0657 15.8026 9.7591 15.9967 9.42026 16.1909C9.09756 16.3689 8.75872 16.5307 8.40375 16.6763C8.06492 16.822 7.70995 16.9514 7.35498 17.0647C6.6773 17.2103 5.9835 17.4854 5.3865 17.5339C5.25742 17.5339 5.11221 17.5663 4.98313 17.5825C4.83791 17.6148 4.70883 17.6472 4.57975 17.6796C4.45067 17.7281 4.32159 17.7766 4.19251 17.8252C4.06343 17.8737 3.93435 17.9384 3.80527 18.0032C3.69232 18.0841 3.56325 18.1488 3.4503 18.2297C3.33736 18.3106 3.22441 18.4077 3.1276 18.5048C3.01466 18.5857 2.90171 18.699 2.8049 18.796C2.70808 18.9093 2.61127 19.0064 2.5306 19.1197C2.44993 19.2491 2.35312 19.3624 2.28857 19.4918C2.2079 19.6051 2.12723 19.7345 2.06268 19.864C1.99812 20.0096 1.93361 20.1391 1.8852 20.2847C1.83679 20.4141 1.78839 20.5598 1.73998 20.7054C1.70774 20.8348 1.67542 20.9643 1.65931 21.0937C1.65931 21.11 1.64315 21.1261 1.64315 21.1423C1.61091 21.2879 1.61091 21.4821 1.59474 21.5792C1.57858 21.6924 1.5625 21.7895 1.5625 21.9028C1.5625 21.9675 1.5625 22.0484 1.57866 22.1131C1.59482 22.2264 1.6109 22.3235 1.64323 22.4206C1.67547 22.5177 1.70779 22.6147 1.75617 22.7118V22.728C1.80457 22.8251 1.86912 22.9222 1.93365 23.0193C1.99822 23.1164 2.06274 23.2135 2.14341 23.3106C2.22408 23.3915 2.32089 23.4885 2.41771 23.5695C2.51452 23.6665 2.61133 23.7474 2.72427 23.8283C3.11151 24.1681 3.20832 24.2814 3.70851 24.5403C3.78918 24.5889 3.86986 24.6212 3.96667 24.6698C3.98284 24.6698 3.99892 24.686 4.01508 24.686C4.01508 24.7183 4.01508 24.7345 4.03124 24.7669C4.0474 24.8963 4.07965 25.0258 4.11191 25.1552C4.14416 25.3008 4.19259 25.4303 4.241 25.5436C4.28941 25.6406 4.32167 25.7377 4.37008 25.8348C4.38624 25.8672 4.40232 25.8996 4.41848 25.9157C4.48305 26.0452 4.54756 26.1584 4.6121 26.2717C4.69278 26.385 4.77345 26.4982 4.85413 26.6115C4.9348 26.7086 5.03161 26.8219 5.12842 26.9189C5.22523 27.016 5.32204 27.0969 5.43499 27.194C5.43499 27.194 5.45115 27.2102 5.46724 27.2102C5.56405 27.2911 5.66086 27.3721 5.75767 27.4368C5.87061 27.5177 5.98356 27.5824 6.11264 27.6471C6.22559 27.7119 6.35466 27.7766 6.48374 27.8251C6.58055 27.8737 6.69349 27.906 6.80644 27.9384C6.82261 27.9546 6.83869 27.9546 6.87101 27.9707C6.93558 27.987 7.01622 28.0031 7.08076 28.0193C7.03236 28.893 7.0162 29.7183 7.14533 30.0095C7.29054 30.3331 8.00048 29.3461 8.71042 28.2134C8.61361 29.3299 8.54907 30.6406 8.71042 31.0289C8.88791 31.4334 9.85601 30.1713 10.695 28.7798C22.1348 26.1261 32.5741 34.0548 33.6713 45.252C33.4616 43.5044 31.3156 42.5336 30.3314 42.7763C29.8473 43.9737 29.0244 45.5109 27.7014 46.4656C27.8143 45.3976 27.7659 44.2973 27.54 43.2294C27.185 44.718 26.4912 46.1096 25.5393 47.307C24.0064 47.4202 22.4736 46.6759 21.6668 45.5594C21.6023 45.5109 21.5862 45.4138 21.5378 45.3491C21.4894 45.2358 21.441 45.1226 21.4087 45.0093C21.3603 44.896 21.328 44.7827 21.3119 44.6695C21.2957 44.5562 21.2957 44.4429 21.2957 44.3135C21.2957 44.2326 21.2957 44.1517 21.2957 44.0708C21.3119 43.9575 21.3441 43.8442 21.3764 43.731C21.4086 43.6177 21.441 43.5044 21.4893 43.3912C21.5539 43.2779 21.6023 43.1646 21.683 43.0514C21.9573 42.2747 21.9573 41.6436 21.4571 41.2715C21.3603 41.2067 21.2635 41.1582 21.1505 41.1097C21.0859 41.0935 21.0053 41.0611 20.9408 41.0449C20.8923 41.0287 20.8601 41.0126 20.8117 40.9964C20.6987 40.964 20.5858 40.9316 20.4728 40.9155C20.3599 40.8831 20.2469 40.8669 20.134 40.8669C20.0211 40.8507 19.892 40.8346 19.779 40.8346C19.6984 40.8346 19.6177 40.8508 19.537 40.8508C19.4079 40.8508 19.295 40.867 19.182 40.8993C19.0691 40.9156 18.9561 40.9317 18.8432 40.9641C18.7303 40.9964 18.6173 41.0288 18.5044 41.0774C18.3914 41.1259 18.2946 41.1744 18.1817 41.223C18.0849 41.2715 17.988 41.3362 17.8751 41.3848C14.1156 43.8443 16.3584 49.6047 18.9239 51.2714C17.9558 51.4493 16.9715 51.6597 16.6972 51.8701C16.6811 51.8863 16.665 51.9024 16.665 51.9024C17.3588 52.3231 18.0849 52.6791 18.8432 52.9865C19.8759 53.3263 20.973 53.6338 21.4571 53.7632V53.7794C22.7963 54.0545 24.1516 54.1516 25.5231 54.0707C32.6709 53.5691 38.528 48.1161 39.5929 40.9317C39.6251 41.0773 39.6574 41.2068 39.6897 41.3524C39.7381 41.6437 39.8026 41.9511 39.8349 42.2586V42.2748C39.8671 42.4204 39.8833 42.566 39.8995 42.6955V42.7602C39.9156 42.9059 39.9317 43.0515 39.9317 43.1809C39.9479 43.3589 39.964 43.5369 39.964 43.7149V43.9738C39.964 44.0547 39.9801 44.1518 39.9801 44.2327C39.9801 44.3298 39.964 44.4269 39.964 44.524V44.7505C39.964 44.8638 39.9478 44.9608 39.9478 45.0741C39.9478 45.1389 39.9478 45.2036 39.9316 45.2845C39.9316 45.3977 39.9155 45.511 39.9155 45.6404C39.8993 45.689 39.8993 45.7375 39.8993 45.7861C39.8831 45.9155 39.867 46.0288 39.8509 46.1582C39.8509 46.2068 39.8509 46.2553 39.8347 46.3039C39.8185 46.4657 39.7863 46.6113 39.7702 46.7731V46.7893V46.8055C39.7379 46.9512 39.7056 47.113 39.6733 47.2586V47.3072C39.6411 47.4528 39.6088 47.5984 39.5765 47.744C39.5765 47.7603 39.5604 47.7926 39.5604 47.8088C39.5281 47.9544 39.4958 48.1 39.4474 48.2457V48.2942C39.399 48.456 39.3506 48.6016 39.3184 48.7473C39.3022 48.7635 39.3022 48.7796 39.3022 48.7796C39.2538 48.9414 39.2054 49.1032 39.157 49.265C39.0924 49.4269 39.0441 49.5725 38.9795 49.7343C38.915 49.8961 38.8666 50.0579 38.802 50.2035C38.7375 50.3654 38.6729 50.511 38.6084 50.6728H38.5922C38.5277 50.8184 38.4631 50.9802 38.3825 51.1259C38.3663 51.1744 38.3502 51.2068 38.3341 51.2391C38.3179 51.2553 38.3179 51.2715 38.3018 51.2877C37.253 53.4074 35.7041 55.2682 33.7679 56.7245C33.6388 56.8054 33.5097 56.9025 33.3806 56.9995C33.3484 57.0319 33.3 57.0481 33.2677 57.0804C33.1547 57.1614 33.0418 57.2423 32.9127 57.3232L32.9611 57.4203H32.9773C33.2032 57.3879 33.4291 57.3555 33.6549 57.3232H33.6711C34.0906 57.2584 34.5101 57.1775 34.9296 57.0966C35.0426 57.0804 35.1717 57.0481 35.2846 57.0157C35.3653 56.9995 35.4298 56.9834 35.5105 56.9672C35.6234 56.951 35.7364 56.9186 35.8493 56.9024C35.9461 56.8701 36.043 56.8539 36.1398 56.8215C37.7533 56.4332 39.3184 55.8992 40.8189 55.2682C38.2535 58.7794 34.8167 61.6111 30.7991 63.4719C32.6546 63.3425 34.5101 63.035 36.3011 62.5172C42.8035 60.5917 48.2733 56.2066 51.5487 50.3006C50.8872 54.0384 49.4028 57.5982 47.2084 60.705C48.7735 59.6694 50.2095 58.472 51.5164 57.1128C55.1307 53.3264 57.5026 48.5207 58.3093 43.359C58.8579 45.9156 59.0192 48.5531 58.7772 51.1582C70.4267 34.8639 59.7453 17.971 55.2759 13.5213C55.2597 13.4889 55.2437 13.4727 55.2437 13.4404C55.2275 13.4566 55.2275 13.4566 55.2275 13.4727C55.2275 13.4565 55.2275 13.4565 55.2113 13.4404C55.2113 13.6345 55.1952 13.8287 55.1791 14.0229C55.1307 14.395 55.0823 14.751 55.0177 15.107C54.9371 15.463 54.8403 15.8189 54.7434 16.1749C54.6305 16.5147 54.5014 16.8707 54.3562 17.2105C54.211 17.5341 54.0496 17.8739 53.8722 18.1976C53.6947 18.505 53.501 18.8286 53.2913 19.1199C53.0815 19.4273 52.8556 19.7186 52.6297 19.9936C52.3877 20.2849 52.1296 20.5438 51.8714 20.8027C51.7101 20.9483 51.5648 21.0778 51.4035 21.2072C51.2744 21.3205 51.1615 21.4176 51.0324 21.5308C50.742 21.7574 50.4515 21.9677 50.1288 22.1619C49.8223 22.3561 49.4996 22.5502 49.1769 22.712C48.838 22.8739 48.4992 23.0195 48.1604 23.1651C47.8215 23.2946 47.4665 23.4078 47.1116 23.5049C46.7566 23.602 46.3855 23.6829 46.0305 23.7476C45.6594 23.8124 45.2883 23.8447 44.9333 23.8771C44.6752 23.8933 44.417 23.9094 44.1589 23.9094C43.7878 23.9094 43.4167 23.8771 43.0617 23.8447C42.6906 23.8123 42.3195 23.7638 41.9645 23.6828C41.5934 23.6181 41.2384 23.521 40.8834 23.4078H40.8673C41.2223 23.3754 41.5772 23.343 41.9322 23.2783C42.3033 23.2136 42.6583 23.1327 43.0133 23.0356C43.3682 22.9385 43.7232 22.8253 44.062 22.6958C44.417 22.5664 44.7558 22.4046 45.0785 22.2427C45.4174 22.0809 45.7239 21.9029 46.0466 21.7088C46.3532 21.4984 46.6598 21.2881 46.9502 21.0615C47.2406 20.835 47.5149 20.5923 47.7731 20.3334C48.0474 20.0907 48.2894 19.8156 48.5314 19.5405C48.7735 19.2493 48.9993 18.958 49.2091 18.6667C49.2414 18.6182 49.2737 18.5535 49.3059 18.5049C49.4673 18.246 49.6286 17.9871 49.7738 17.7282C49.9513 17.4046 50.1127 17.081 50.2579 16.7412C50.4031 16.4014 50.5322 16.0616 50.6451 15.7056C50.7581 15.3658 50.8387 15.0098 50.9194 14.6539C50.984 14.2817 51.0485 13.9257 51.0808 13.5697C51.113 13.1976 51.1453 12.8254 51.1453 12.4694C51.1453 12.2105 51.1292 11.9516 51.1131 11.6928C51.0808 11.3206 51.0324 10.9646 50.984 10.6086C50.9194 10.2365 50.8388 9.88049 50.742 9.5245C50.629 9.18471 50.5161 8.82872 50.387 8.48893C50.2579 8.14912 50.0966 7.80932 49.9352 7.4857C49.7577 7.16208 49.5803 6.83846 49.3866 6.53103C49.1769 6.22359 48.9671 5.93233 48.7412 5.64107C48.4992 5.36599 48.2572 5.09092 47.999 4.81584C47.8699 4.6864 47.7247 4.54077 47.5795 4.41132C46.8534 3.84498 46.0951 3.31101 45.3367 2.82558C45.2238 2.76084 45.127 2.71232 45.014 2.66377C44.4816 2.32397 43.9814 2.14589 43.4812 1.98408Z" fill="#E0234E"/>
</g>
</svg>
