<svg width="65" height="64" viewBox="0 0 65 64" fill="none" xmlns="http://www.w3.org/2000/svg">
<g id="icon-nextjs" clip-path="url(#clip0_921_1536)">
<g id="Mask group">
<mask id="mask0_921_1536" style="mask-type:alpha" maskUnits="userSpaceOnUse" x="0" y="0" width="65" height="64">
<g id="Group">
<path id="Vector" d="M32.4375 64C50.1106 64 64.4375 49.6731 64.4375 32C64.4375 14.3269 50.1106 0 32.4375 0C14.7644 0 0.4375 14.3269 0.4375 32C0.4375 49.6731 14.7644 64 32.4375 64Z" fill="black"/>
</g>
</mask>
<g mask="url(#mask0_921_1536)">
<g id="Group_2">
<path id="Vector_2" d="M32.4411 62.9333C49.5252 62.9333 63.3745 49.084 63.3745 32C63.3745 14.916 49.5252 1.06665 32.4411 1.06665C15.3571 1.06665 1.50781 14.916 1.50781 32C1.50781 49.084 15.3571 62.9333 32.4411 62.9333Z" fill="black" stroke="white" stroke-width="6"/>
<path id="Vector_3" d="M53.599 56.0071L25.0244 19.2H19.6406V44.7893H23.9477V24.6697L50.218 58.6115C51.4035 57.8183 52.5327 56.9475 53.599 56.0071Z" fill="url(#paint0_linear_921_1536)"/>
<path id="Vector_4" d="M45.5948 19.2H41.3281V44.8H45.5948V19.2Z" fill="url(#paint1_linear_921_1536)"/>
</g>
</g>
</g>
</g>
<defs>
<linearGradient id="paint0_linear_921_1536" x1="39.1962" y1="41.4222" x2="51.8184" y2="57.0666" gradientUnits="userSpaceOnUse">
<stop stop-color="white"/>
<stop offset="1" stop-color="white" stop-opacity="0"/>
</linearGradient>
<linearGradient id="paint1_linear_921_1536" x1="43.4615" y1="19.2" x2="43.39" y2="38" gradientUnits="userSpaceOnUse">
<stop stop-color="white"/>
<stop offset="1" stop-color="white" stop-opacity="0"/>
</linearGradient>
<clipPath id="clip0_921_1536">
<rect width="64" height="64" fill="white" transform="translate(0.4375)"/>
</clipPath>
</defs>
</svg>
