<svg width="57" height="64" viewBox="0 0 57 64" fill="none" xmlns="http://www.w3.org/2000/svg">
<g id="icon-nodejs" clip-path="url(#clip0_921_1546)">
<path id="Vector" d="M28.9157 64C28.0577 64 27.2569 63.7668 26.5133 63.3586L18.906 58.7517C17.7621 58.1102 18.334 57.877 18.6772 57.7603C20.2216 57.2355 20.5075 57.1189 22.1091 56.1859C22.2807 56.0692 22.5094 56.1275 22.681 56.2442L28.5152 59.8014C28.7441 59.918 29.03 59.918 29.2016 59.8014L52.0236 46.3307C52.2524 46.214 52.3667 45.9808 52.3667 45.6892V18.806C52.3667 18.5145 52.2524 18.2812 52.0236 18.1646L29.2016 4.75223C28.9728 4.63561 28.6868 4.63561 28.5152 4.75223L5.69329 18.1646C5.46451 18.2812 5.35011 18.5728 5.35011 18.806V45.6892C5.35011 45.9224 5.46451 46.214 5.69329 46.3307L11.9279 50.0045C15.3025 51.7539 17.4188 49.7129 17.4188 47.6719V21.1386C17.4188 20.7888 17.7049 20.4389 18.1052 20.4389H21.0224C21.3655 20.4389 21.7087 20.7305 21.7087 21.1386V47.6719C21.7087 52.2788 19.2492 54.9613 14.9593 54.9613C13.6438 54.9613 12.6143 54.9613 9.69712 53.5034L3.69137 50.0045C2.20423 49.1297 1.28906 47.4969 1.28906 45.7475V18.8644C1.28906 17.115 2.20423 15.4822 3.69137 14.6074L26.5133 1.13672C27.9433 0.320313 29.888 0.320313 31.318 1.13672L54.1399 14.6074C55.627 15.4822 56.5422 17.115 56.5422 18.8644V45.7475C56.5422 47.4969 55.627 49.1297 54.1399 50.0045L31.318 63.4752C30.6316 63.7668 29.7736 64 28.9157 64Z" fill="#5FA04E"/>
<path id="Vector_2" d="M36.0062 45.5143C25.9966 45.5143 23.9375 40.8491 23.9375 36.8837C23.9375 36.5339 24.2235 36.184 24.6238 36.184H27.5981C27.9413 36.184 28.2273 36.4172 28.2273 36.7671C28.6849 39.8577 30.0005 41.374 36.0634 41.374C40.868 41.374 42.9272 40.266 42.9272 37.6418C42.9272 36.1256 42.3552 35.0176 34.8622 34.2595C28.6277 33.6181 24.7383 32.2186 24.7383 27.1451C24.7383 22.4216 28.6277 19.6226 35.1483 19.6226C42.4696 19.6226 46.073 22.1884 46.5306 27.7866C46.5306 27.9616 46.4734 28.1365 46.3591 28.3115C46.2447 28.4281 46.073 28.5447 45.9014 28.5447H42.87C42.5839 28.5447 42.298 28.3115 42.2408 28.0198C41.5544 24.8126 39.7813 23.7629 35.0911 23.7629C29.8288 23.7629 29.1997 25.629 29.1997 27.0285C29.1997 28.7196 29.9433 29.2445 37.0358 30.1775C44.0711 31.1106 47.3886 32.4518 47.3886 37.4669C47.3886 42.5986 43.2131 45.5143 36.0062 45.5143Z" fill="#5FA04E"/>
</g>
<defs>
<clipPath id="clip0_921_1546">
<rect width="56.32" height="64" fill="white" transform="translate(0.65625)"/>
</clipPath>
</defs>
</svg>
