<svg width="71" height="64" viewBox="0 0 71 64" fill="none" xmlns="http://www.w3.org/2000/svg">
<g id="icon-react" clip-path="url(#clip0_921_1528)">
<path id="Vector" d="M35.6572 38.7725C39.3295 38.7725 42.3065 35.7404 42.3065 32C42.3065 28.2597 39.3295 25.2275 35.6572 25.2275C31.9848 25.2275 29.0078 28.2597 29.0078 32C29.0078 35.7404 31.9848 38.7725 35.6572 38.7725Z" fill="#087EA4"/>
<g id="Group">
<path id="Vector_2" d="M35.6608 47.2382C54.0225 47.2382 68.9076 40.4158 68.9076 32.0001C68.9076 23.5843 54.0225 16.762 35.6608 16.762C17.2991 16.762 2.41406 23.5843 2.41406 32.0001C2.41406 40.4158 17.2991 47.2382 35.6608 47.2382Z" stroke="#087EA4" stroke-width="3"/>
<path id="Vector_3" d="M22.7023 39.619C31.8831 55.8152 45.1265 65.5336 52.2823 61.3257C59.4381 57.1178 57.7964 40.5771 48.6156 24.3809C39.4347 8.18475 26.1913 -1.53366 19.0355 2.67422C11.8798 6.88211 13.5214 23.4228 22.7023 39.619Z" stroke="#087EA4" stroke-width="3"/>
<path id="Vector_4" d="M22.7055 24.3808C13.5247 40.577 11.883 57.1177 19.0388 61.3256C26.1946 65.5335 39.438 55.8151 48.6188 39.6189C57.7996 23.4228 59.4413 6.88205 52.2855 2.67416C45.1298 -1.53372 31.8864 8.18469 22.7055 24.3808Z" stroke="#087EA4" stroke-width="3"/>
</g>
</g>
<defs>
<clipPath id="clip0_921_1528">
<rect width="69.8182" height="64" fill="white" transform="translate(0.75)"/>
</clipPath>
</defs>
</svg>
