<svg width="65" height="64" viewBox="0 0 65 64" fill="none" xmlns="http://www.w3.org/2000/svg">
<g id="icon-sass">
<path id="Vector" d="M53.802 34.6079C51.7513 34.6186 49.9753 35.1106 48.4873 35.8452C47.9433 34.7586 47.3913 33.8026 47.2993 33.0919C47.1913 32.2626 47.066 31.7666 47.1967 30.7786C47.3273 29.7906 47.8993 28.3906 47.8913 28.2852C47.8833 28.1799 47.7633 27.6772 46.5807 27.6679C45.398 27.6599 44.386 27.8959 44.2673 28.2079C44.1487 28.5199 43.9207 29.2226 43.7793 29.9559C43.5727 31.0279 41.418 34.8532 40.1953 36.8532C39.7953 36.0719 39.4553 35.3839 39.3847 34.8399C39.2767 34.0106 39.1513 33.5146 39.282 32.5266C39.4127 31.5386 39.9847 30.1386 39.9767 30.0332C39.9687 29.9279 39.8487 29.4252 38.666 29.4159C37.4833 29.4079 36.4713 29.6439 36.3527 29.9559C36.234 30.2679 36.106 30.9972 35.8647 31.7039C35.622 32.4092 32.7593 38.7892 32.0087 40.4439C31.626 41.2866 31.294 41.9639 31.0593 42.4252L31.058 42.4226C31.058 42.4226 31.0433 42.4532 31.0193 42.5052C30.818 42.8986 30.6993 43.1159 30.6993 43.1159C30.6993 43.1159 30.7007 43.1186 30.7033 43.1239C30.5433 43.4132 30.3727 43.6812 30.2887 43.6812C30.23 43.6812 30.1113 42.9119 30.314 41.8559C30.7407 39.6426 31.7633 36.1919 31.754 36.0719C31.7487 36.0106 31.9447 35.4092 31.086 35.0946C30.2513 34.7892 29.954 35.2986 29.878 35.2999C29.8047 35.3012 29.75 35.4799 29.75 35.4799C29.75 35.4799 30.6793 31.5986 27.9767 31.5986C26.286 31.5986 23.9447 33.4479 22.7913 35.1239C22.0633 35.5212 20.5047 36.3719 18.8527 37.2799C18.218 37.6292 17.57 37.9852 16.9553 38.3239C16.914 38.2772 16.8713 38.2319 16.8287 38.1852C13.55 34.6879 7.49134 32.2146 7.74734 27.5119C7.84067 25.8026 8.43534 21.3012 19.3913 15.8426C28.366 11.3706 35.5513 12.6012 36.7927 15.3279C38.566 19.2252 32.9527 26.4666 23.6327 27.5119C20.082 27.9106 18.2113 26.5332 17.746 26.0212C17.2567 25.4812 17.1833 25.4572 17.0007 25.5586C16.7033 25.7239 16.8913 26.1999 17.0007 26.4839C17.2793 27.2079 18.4207 28.4919 20.3673 29.1319C22.0807 29.6946 26.25 30.0026 31.2913 28.0519C36.9393 25.8679 41.3487 19.7906 40.0527 14.7119C38.7353 9.54658 30.17 7.84791 22.0633 10.7279C17.2327 12.4426 12.01 15.1332 8.25401 18.6452C3.78867 22.8212 3.07667 26.4572 3.37001 27.9759C4.41267 33.3732 11.8513 36.8879 14.83 39.4919C14.6833 39.5732 14.5447 39.6492 14.4193 39.7186C12.926 40.4572 7.25534 43.4252 5.83667 46.5599C4.22734 50.1159 6.09267 52.6679 7.32734 53.0119C11.1527 54.0759 15.078 52.1612 17.1887 49.0146C19.298 45.8692 19.0407 41.7719 18.0727 39.9026C18.0607 39.8799 18.0473 39.8572 18.0353 39.8332C18.4207 39.6052 18.814 39.3732 19.2033 39.1439C19.9633 38.6972 20.71 38.2812 21.3567 37.9292C20.994 38.9212 20.7287 40.1119 20.5913 41.8306C20.4287 43.8492 21.2567 46.4586 22.3393 47.4852C22.8167 47.9372 23.39 47.9479 23.7527 47.9479C25.0127 47.9479 25.5873 46.8999 26.2207 45.6599C26.9967 44.1399 27.686 42.3692 27.686 42.3692C27.686 42.3692 26.822 47.1506 29.1767 47.1506C30.0353 47.1506 30.898 46.0372 31.2833 45.4706C31.2847 45.4772 31.2847 45.4799 31.2847 45.4799C31.2847 45.4799 31.3073 45.4426 31.3513 45.3692C31.4407 45.2332 31.4913 45.1466 31.4913 45.1466C31.4913 45.1466 31.4927 45.1372 31.4953 45.1212C31.8407 44.5226 32.606 43.1572 33.7527 40.9052C35.2353 37.9959 36.6567 34.3506 36.6567 34.3506C36.6567 34.3506 36.7887 35.2412 37.222 36.7159C37.4767 37.5826 38.018 38.5412 38.446 39.4612C38.102 39.9386 37.8913 40.2119 37.8913 40.2119C37.8913 40.2119 37.8927 40.2172 37.8967 40.2266C37.622 40.5919 37.314 40.9852 36.9913 41.3692C35.8207 42.7626 34.4273 44.3546 34.2407 44.8132C34.0207 45.3546 34.0727 45.7519 34.498 46.0732C34.8087 46.3066 35.3607 46.3439 35.938 46.3052C36.99 46.2346 37.7287 45.9732 38.094 45.8146C38.6633 45.6132 39.326 45.2972 39.9473 44.8399C41.0953 43.9959 41.7873 42.7892 41.7207 41.1892C41.6833 40.3079 41.4033 39.4346 41.0473 38.6106C41.1513 38.4612 41.2553 38.3092 41.3607 38.1572C43.17 35.5119 44.574 32.6052 44.574 32.6052C44.574 32.6052 44.706 33.4959 45.1393 34.9706C45.358 35.7159 45.7913 36.5306 46.1807 37.3279C44.4793 38.7106 43.4247 40.3172 43.058 41.3706C42.3807 43.3199 42.9113 44.2026 43.906 44.4039C44.3567 44.4946 44.994 44.2879 45.4727 44.0852C46.0687 43.8879 46.7847 43.5586 47.454 43.0666C48.602 42.2226 49.706 41.0412 49.6393 39.4426C49.6087 38.7146 49.4113 37.9919 49.1433 37.2986C50.586 36.6972 52.4527 36.3639 54.8313 36.6412C59.934 37.2372 60.934 40.4226 60.7433 41.7559C60.5513 43.0892 59.482 43.8226 59.1233 44.0439C58.766 44.2652 58.6567 44.3426 58.686 44.5066C58.73 44.7452 58.8953 44.7372 59.2007 44.6852C59.6207 44.6146 61.8793 43.6012 61.9767 41.1399C62.098 38.0119 59.1047 34.5799 53.802 34.6079ZM14.4727 47.8666C12.782 49.7106 10.422 50.4066 9.40867 49.8199C8.31534 49.1866 8.74867 46.4719 10.822 44.5146C12.086 43.3226 13.718 42.2239 14.8007 41.5479C15.0473 41.3999 15.4087 41.1826 15.8487 40.9186C15.922 40.8772 15.9633 40.8546 15.9633 40.8546L15.962 40.8519C16.0473 40.8012 16.134 40.7492 16.2233 40.6946C16.9793 43.4799 16.2473 45.9319 14.4727 47.8666ZM26.786 39.4972C26.198 40.9319 24.966 44.6039 24.2153 44.4066C23.5713 44.2372 23.1793 41.4466 24.0873 38.6999C24.5433 37.3172 25.5193 35.6652 26.0927 35.0239C27.0153 33.9919 28.0313 33.6546 28.278 34.0732C28.5913 34.6066 27.1553 38.5972 26.786 39.4972ZM36.958 44.3506C36.7087 44.4812 36.4793 44.5626 36.374 44.4999C36.2953 44.4532 36.4767 44.2812 36.4767 44.2812C36.4767 44.2812 37.7487 42.9119 38.25 42.2892C38.542 41.9266 38.8793 41.4959 39.2473 41.0159C39.25 41.0639 39.2513 41.1119 39.2513 41.1586C39.2487 42.7986 37.6647 43.9052 36.958 44.3506ZM44.794 42.5639C44.6073 42.4319 44.6393 42.0039 45.2513 40.6692C45.4913 40.1452 46.0407 39.2639 46.9927 38.4212C47.1033 38.7679 47.17 39.0999 47.1687 39.4092C47.1567 41.4732 45.6847 42.2439 44.794 42.5639Z" fill="#F06292"/>
</g>
</svg>
