<svg width="65" height="64" viewBox="0 0 65 64" fill="none" xmlns="http://www.w3.org/2000/svg">
<g id="icon-storybook">
<path id="Vector" fill-rule="evenodd" clip-rule="evenodd" d="M11.4331 55.604L9.69715 9.37595C9.64248 7.84929 10.8158 6.55729 12.3398 6.46395L43.1505 4.53729L45.5038 5.33329L48.5638 4.19862L51.6518 4.00529C53.2025 3.90662 54.5398 5.08395 54.6398 6.63462C54.6438 6.69462 54.6451 6.75595 54.6451 6.81729V57.1866C54.6438 58.7426 53.3811 60.0026 51.8251 60.0013C51.7838 60.0013 51.7425 60 51.7025 59.9986L14.1211 58.3106C12.6571 58.2453 11.4891 57.0693 11.4331 55.604Z" fill="#FF4081"/>
<path id="Vector_2" fill-rule="evenodd" clip-rule="evenodd" d="M48.5618 4.19873L43.1525 4.53473L42.8898 10.8827C42.8805 11.1147 43.0605 11.3094 43.2925 11.3201C43.3898 11.3241 43.4845 11.2947 43.5618 11.2361L46.0258 9.3654L48.1085 11.0067C48.2898 11.1507 48.5552 11.1201 48.6978 10.9387C48.7592 10.8601 48.7912 10.7627 48.7885 10.6627L48.5645 4.20006L48.5618 4.19873ZM44.3512 25.4507C43.3632 26.2201 35.9818 26.7441 35.9818 25.6494C36.1392 21.4694 34.2685 21.2867 33.2272 21.2867C32.2418 21.2867 30.5778 21.5841 30.5778 23.8241C30.5778 26.1054 33.0085 27.3934 35.8618 28.9054C39.9138 31.0534 44.8218 33.6547 44.8218 40.1947C44.8218 46.4667 39.7258 49.9281 33.2298 49.9281C26.5245 49.9281 20.6632 47.2147 21.3245 37.8094C21.5845 36.7067 30.1112 36.9694 30.1112 37.8094C30.0045 41.6907 30.8898 42.8321 33.1245 42.8321C34.8405 42.8321 35.6192 41.8854 35.6192 40.2947C35.6192 37.8841 33.0885 36.4614 30.1738 34.8267C26.2285 32.6121 21.5858 30.0054 21.5858 24.0214C21.5858 18.0521 25.6912 14.0707 33.0205 14.0707C40.3498 14.0707 44.3512 17.9921 44.3512 25.4507Z" fill="white"/>
</g>
</svg>
