<svg width="106" height="64" viewBox="0 0 106 64" fill="none" xmlns="http://www.w3.org/2000/svg">
<g id="icon-tailwindcss" clip-path="url(#clip0_921_1575)">
<g id="Clip path group">
<mask id="mask0_921_1575" style="mask-type:luminance" maskUnits="userSpaceOnUse" x="0" y="0" width="106" height="63">
<g id="prefix__clip0">
<path id="Vector" d="M0.976562 0H105.704V62.8364H0.976562V0Z" fill="white"/>
</g>
</mask>
<g mask="url(#mask0_921_1575)">
<g id="Group">
<path id="Vector_2" fill-rule="evenodd" clip-rule="evenodd" d="M53.3402 0C39.3766 0 30.6493 6.98182 27.1584 20.9455C32.3947 13.9636 38.5038 11.3455 45.4857 13.0909C49.4692 14.0858 52.3162 16.9775 55.4677 20.1755C60.6013 25.3867 66.5436 31.4182 79.522 31.4182C93.4856 31.4182 102.213 24.4364 105.704 10.4727C100.467 17.4545 94.3584 20.0727 87.3766 18.3273C83.393 17.3324 80.546 14.4407 77.3945 11.2427C72.2609 6.03151 66.3186 0 53.3402 0ZM27.1584 31.4182C13.1947 31.4182 4.46747 38.4 0.976562 52.3636C6.21293 45.3818 12.322 42.7636 19.3038 44.5091C23.2873 45.5059 26.1344 48.3956 29.2859 51.5937C34.4195 56.8048 40.3618 62.8364 53.3402 62.8364C67.3038 62.8364 76.0311 55.8545 79.522 41.8909C74.2857 48.8727 68.1766 51.4909 61.1947 49.7455C57.2112 48.7505 54.3642 45.8589 51.2127 42.6608C46.0791 37.4497 40.1368 31.4182 27.1584 31.4182Z" fill="#38BDF8"/>
</g>
</g>
</g>
</g>
<defs>
<clipPath id="clip0_921_1575">
<rect width="104.727" height="64" fill="white" transform="translate(0.976562)"/>
</clipPath>
</defs>
</svg>
