<svg width="41" height="40" viewBox="0 0 41 40" fill="none" xmlns="http://www.w3.org/2000/svg">
<g id="icon-user">
<path id="Vector" fill-rule="evenodd" clip-rule="evenodd" d="M13.1626 10C13.1626 8.01088 13.9528 6.10322 15.3593 4.6967C16.7658 3.29018 18.6735 2.5 20.6626 2.5C22.6517 2.5 24.5594 3.29018 25.9659 4.6967C27.3724 6.10322 28.1626 8.01088 28.1626 10C28.1626 11.9891 27.3724 13.8968 25.9659 15.3033C24.5594 16.7098 22.6517 17.5 20.6626 17.5C18.6735 17.5 16.7658 16.7098 15.3593 15.3033C13.9528 13.8968 13.1626 11.9891 13.1626 10ZM6.91426 33.5083C6.97046 29.8991 8.44366 26.4568 11.0159 23.9243C13.5881 21.3918 17.0529 19.9724 20.6626 19.9724C24.2722 19.9724 27.7371 21.3918 30.3093 23.9243C32.8815 26.4568 34.3547 29.8991 34.4109 33.5083C34.4153 33.7513 34.3487 33.9903 34.2193 34.196C34.09 34.4017 33.9035 34.5653 33.6826 34.6667C29.5979 36.5395 25.1562 37.5061 20.6626 37.5C16.0193 37.5 11.6076 36.4867 7.6426 34.6667C7.42174 34.5653 7.23522 34.4017 7.10587 34.196C6.97651 33.9903 6.90993 33.7513 6.91426 33.5083Z" fill="black"/>
</g>
</svg>
