<svg width="65" height="64" viewBox="0 0 65 64" fill="none" xmlns="http://www.w3.org/2000/svg">
<g id="icon-typescript" clip-path="url(#clip0_921_1523)">
<path id="Vector" d="M61.875 0H3.875C2.21815 0 0.875 1.34315 0.875 3V61C0.875 62.6569 2.21815 64 3.875 64H61.875C63.5319 64 64.875 62.6569 64.875 61V3C64.875 1.34315 63.5319 0 61.875 0Z" fill="#3178C6"/>
<path id="Vector_2" fill-rule="evenodd" clip-rule="evenodd" d="M38.0061 49.734V56.747C39.1423 57.331 40.486 57.7695 42.0373 58.0615C43.5887 58.354 45.2238 58.5 46.9426 58.5C48.6178 58.5 50.2091 58.3395 51.7165 58.018C53.2245 57.6965 54.546 57.167 55.6825 56.429C56.8185 55.691 57.718 54.727 58.381 53.536C59.0435 52.3455 59.375 50.8735 59.375 49.1203C59.375 47.8493 59.1855 46.7353 58.807 45.7783C58.428 44.8214 57.882 43.9704 57.168 43.2252C56.4545 42.4801 55.5985 41.8117 54.601 41.22C53.603 40.6283 52.478 40.0694 51.225 39.5435C50.3074 39.1636 49.4844 38.7947 48.7561 38.4368C48.0277 38.0788 47.4087 37.7136 46.8989 37.341C46.389 36.9684 45.9958 36.574 45.719 36.1576C45.4423 35.7413 45.3038 35.27 45.3038 34.7441C45.3038 34.2619 45.4277 33.8273 45.6753 33.4402C45.923 33.053 46.2725 32.7206 46.7241 32.443C47.1756 32.1655 47.7292 31.95 48.3847 31.7966C49.0401 31.6431 49.7684 31.5664 50.5696 31.5664C51.1525 31.5664 51.7675 31.6103 52.416 31.6979C53.064 31.7856 53.716 31.9207 54.3715 32.1034C55.027 32.286 55.664 32.5161 56.2835 32.7937C56.9025 33.0713 57.474 33.3927 57.9985 33.7579V27.2054C56.935 26.7963 55.7735 26.4931 54.5135 26.2959C53.2535 26.0986 51.808 26 50.1763 26C48.5158 26 46.9426 26.1789 45.4568 26.5369C43.9711 26.8948 42.6637 27.4537 41.5348 28.2134C40.4059 28.9731 39.5137 29.941 38.8582 31.1171C38.2027 32.2932 37.875 33.6995 37.875 35.3358C37.875 37.4251 38.4759 39.2074 39.6776 40.683C40.8794 42.1587 42.7038 43.4079 45.1509 44.4305C46.1123 44.825 47.0082 45.2122 47.8384 45.592C48.6687 45.9719 49.3861 46.3664 49.9906 46.7755C50.5951 47.1846 51.072 47.6302 51.4215 48.1123C51.7715 48.5944 51.946 49.1423 51.946 49.7559C51.946 50.209 51.837 50.629 51.6185 51.016C51.4 51.403 51.0685 51.739 50.6242 52.024C50.1799 52.309 49.6264 52.532 48.9636 52.6925C48.3009 52.853 47.5252 52.9335 46.6367 52.9335C45.1217 52.9335 43.6215 52.667 42.1357 52.1335C40.6499 51.6005 39.2734 50.8005 38.0061 49.734ZM26.2263 32.2772H35.375V26.5H9.875V32.2772H18.979V58H26.2263V32.2772Z" fill="white"/>
</g>
<defs>
<clipPath id="clip0_921_1523">
<rect width="64" height="64" fill="white" transform="translate(0.875)"/>
</clipPath>
</defs>
</svg>
